<svg width="158" height="118" viewBox="0 0 158 118" fill="none" xmlns="http://www.w3.org/2000/svg">
<path d="M19.8666 102.977C19.6957 102.995 19.5248 103.013 18.9366 102.767C18.9366 102.767 18.4433 102.742 18.0244 102.203C14.3523 100.166 13.9272 96.547 13.4912 91.9931C13.4847 86.6576 13.4782 81.322 13.7066 75.0741C13.6288 69.7115 13.5511 64.3489 13.7113 58.076C13.6297 53.0454 13.5482 48.0148 13.71 42.0739C13.9581 34.3876 14.2061 26.7013 14.9989 18.644C16.7808 17.3698 18.5626 16.0956 21.2755 14.9312C28.2984 14.5658 35.3213 14.2005 43.2652 14.0054C50.3376 13.6211 57.4101 13.2369 64.4826 12.8526C64.4947 12.3366 64.5069 11.8206 64.519 11.3046C57.1175 9.69122 49.716 8.0778 41.6559 6.15293C36.2196 5.13345 30.7832 4.11397 24.771 2.77264C21.2278 2.08644 17.5808 1.72774 14.1633 0.644805C7.37384 -1.50665 1.68709 1.76435 0.108366 9.87992C0.174379 17.5767 0.240393 25.2735 0.0785773 33.8806C0.150732 38.9117 0.222883 43.9429 0.0657409 49.8848C0.142752 55.2483 0.21976 60.6118 0.0770057 66.8302C0.152987 72.8769 0.228968 78.9237 0.0877898 85.8417C0.145357 90.2311 0.202925 94.6205 0.0447753 99.9111C0.0433713 102.575 -0.0654545 105.245 0.0613845 107.903C0.396456 114.926 4.99987 118.772 12.0394 117.88C14.1715 117.61 16.2579 116.979 18.9792 116.588C19.7705 116.364 20.5619 116.14 22.044 115.986C22.4259 115.753 22.8077 115.52 23.9356 115.4C26.737 114.815 29.5383 114.23 33.1272 113.699C43.472 111.525 53.8168 109.352 64.1617 107.178C64.0989 106.54 64.036 105.901 63.9732 105.263C54.4309 104.836 44.8886 104.409 34.576 103.73C30.4929 103.593 26.4099 103.456 21.6796 103.123C21.2316 103.145 20.7836 103.168 19.8666 102.977ZM76.1261 76.1294C77.207 75.4211 78.288 74.7129 80.0446 73.8565C83.1133 71.562 86.182 69.2676 89.963 66.9034C91.4258 66.2152 92.8887 65.527 95.0348 64.7203C96.5874 63.7912 98.2181 62.9695 99.6752 61.9092C102.168 60.0952 102.227 58.0757 99.5026 56.4961C91.5107 51.8618 83.4516 47.3435 75.1236 42.1749C72.6874 40.4995 70.3829 38.57 67.778 37.22C65.1655 35.866 63.2335 36.7446 63.1462 40.0231C63.1112 41.3355 63.2692 42.653 63.1186 44.8062C63.1813 46.5302 63.2441 48.2542 63.1139 50.8766C63.1844 54.2401 63.2548 57.6037 63.1213 61.8061C63.186 63.5236 63.2506 65.2412 63.116 67.7367C63.0767 71.2237 62.9536 74.7124 63.0218 78.1973C63.0907 81.7246 65.0222 82.6429 67.9643 81.0565C70.5724 79.6503 72.986 77.8833 76.1261 76.1294ZM94.619 101.488C90.119 102.357 85.619 103.225 81.119 104.094C81.193 104.652 81.267 105.211 81.3409 105.77C86.0209 105.77 90.7009 105.77 96.3019 105.933C103.655 105.92 111.007 105.907 119.281 106.057C124.624 106.091 129.966 106.125 136.065 106.452C139.823 106.443 143.581 106.435 148.045 106.592C151.739 106.107 154.896 104.836 156.57 100.16C156.789 96.4309 157.008 92.7022 157.391 88.0767C157.337 85.0422 157.282 82.0076 157.385 78.0628C157.333 74.3655 157.282 70.6682 157.386 66.061C157.332 62.3645 157.278 58.6681 157.381 54.0497C157.326 49.025 157.27 44.0003 157.373 38.0501C157.392 32.4093 157.539 26.7652 157.394 21.1286C157.256 15.8004 154.275 12.9888 148.984 12.8794C146.166 12.821 143.344 12.8891 140.132 12.2339C138.866 12.177 137.599 12.1201 135.415 11.8766C126.397 11.9525 117.379 12.0283 107.694 11.9649C107.245 12.0165 106.797 12.0681 105.425 11.9399C97.3758 11.9399 89.3262 11.9399 81.2766 11.9399C81.2579 12.6263 81.2391 13.3127 81.2204 13.9991C90.9396 15.7875 100.659 17.576 111.11 19.761C115.669 20.6152 120.229 21.4694 125.445 22.7585C131.599 24.6569 138.668 23.876 143.604 29.8333C143.699 31.2127 143.795 32.5921 143.714 34.8588C143.818 37.5554 143.921 40.2521 143.749 43.8502C143.819 49.2168 143.888 54.5833 143.708 60.8242C143.803 63.5319 143.898 66.2396 143.729 69.8347C143.809 73.2178 143.889 76.6009 143.733 80.8294C143.706 82.8797 143.68 84.93 143.388 87.4421C143.401 87.6191 143.414 87.7961 143.222 88.3082C143.222 88.3082 143.216 88.7011 142.68 89.0885C141.426 90.3129 140.173 91.5373 138.108 92.765C134.537 93.5507 130.966 94.3365 126.598 95.0799C122.513 96.0375 118.429 96.9951 113.494 97.8408C107.464 99.0741 101.434 100.307 94.619 101.488Z" fill="url(#paint0_linear_550_17)"/>
<defs>
<linearGradient id="paint0_linear_550_17" x1="-1.05554e-06" y1="59" x2="157" y2="59" gradientUnits="userSpaceOnUse">
<stop stop-color="#7B4FEE"/>
<stop offset="1" stop-color="#E961A9"/>
</linearGradient>
</defs>
</svg>
