<svg width="11" height="14" viewBox="0 0 11 14" fill="none" xmlns="http://www.w3.org/2000/svg">
<path d="M9.40595 2.37944C9.40595 2.37944 9.40668 2.37755 9.41321 2.37662C9.41796 2.3742 9.41929 2.37057 9.41984 2.35516C9.4601 2.30548 9.50225 2.25713 9.54019 2.20582C9.60522 2.11787 9.66762 2.02806 9.74091 1.93503C9.90711 1.72202 10.0741 1.50956 10.2393 1.29586C10.4724 0.994521 10.7053 0.693013 10.9357 0.389731C10.9784 0.333536 11.0179 0.272459 10.9914 0.193294C10.9454 0.0557077 10.9012 0.0225681 10.7309 0.00161029C10.4618 0.00106282 10.1926 0.00033147 9.92348 0.000517661C9.91021 0.000526896 9.89695 0.00853725 9.87627 0.0155072C9.87378 0.0163492 9.87129 0.0171909 9.85453 0.0158962C9.67824 0.0167458 9.50196 0.0175954 9.31129 0.0161893C9.10401 0.0169057 8.89674 0.017622 8.67507 0.0161277C8.4471 0.0168126 8.21914 0.0174973 7.97887 0.0159863C7.96226 0.0167056 7.94565 0.0174247 7.91624 0.0160135C7.89466 0.0167405 7.87309 0.0174675 7.83712 0.0160394C7.50053 0.0168241 7.16394 0.0176088 6.81296 0.0161593C6.69894 0.0150745 6.58491 0.01399 6.4638 0.00180456C6.45868 0.00122959 6.45355 0.000151993 6.44842 0.000151297C5.139 -1.52447e-05 3.82957 -0.000165867 2.52015 0.000402624C2.50195 0.000410708 2.48376 0.00948205 2.45798 0.0156289C2.45798 0.0156289 2.45064 0.0178987 2.43635 0.0158338C2.26577 0.0165328 2.09519 0.0172321 1.91144 0.0161722C1.75498 0.0470125 1.59853 0.0778529 1.43418 0.108519C1.43139 0.112713 1.42859 0.116906 1.42681 0.121385C1.42681 0.121385 1.42638 0.120447 1.41458 0.12177C1.24542 0.202708 1.07625 0.283646 0.901537 0.366716C0.89835 0.369912 0.897424 0.373653 0.89918 0.378525C0.89918 0.378525 0.898483 0.378304 0.891318 0.378892C0.886477 0.380981 0.883943 0.384603 0.875902 0.393487C0.873185 0.394477 0.870468 0.395466 0.860091 0.396038C0.855202 0.39875 0.852544 0.402843 0.850312 0.40732C0.850312 0.40732 0.848937 0.408834 0.839648 0.412809C0.807073 0.440291 0.774048 0.467282 0.741997 0.495332C0.516414 0.692756 0.328282 0.917254 0.209558 1.19259C0.119001 1.40261 0.0585497 1.61936 0.0460197 1.86193C0.0468688 2.19492 0.0477179 2.52791 0.0461987 2.86824C0.0457247 2.87076 0.0452511 2.87328 0.0328997 2.88229C0.0328315 3.70405 0.0327633 4.5258 0.0299915 5.36114C0.0301255 6.60151 0.0299399 7.84188 0.0305352 9.08225C0.0308131 9.66206 0.0326018 10.2419 0.0312853 10.8299C0.0312209 10.8328 0.031157 10.8356 0.0184409 10.8441C0.0212647 10.9686 0.0240886 11.0931 0.0291277 11.2314C0.0293385 11.2781 0.0295492 11.3248 0.0203768 11.3798C0.0191488 11.4873 0.0179214 11.5947 0.0148423 11.7096C0.0146832 11.7122 0.0145245 11.7148 0.00249083 11.7238C0.00164741 11.7312 6.80927e-05 11.7387 6.66651e-05 11.7462C-3.27877e-05 12.4052 -0.000122284 13.0642 0.00059516 13.7232C0.000614573 13.7411 0.00942946 13.759 0.0143005 13.7887C0.0176978 13.8006 0.0227673 13.8124 0.0242434 13.8246C0.0491722 14.0307 0.323311 14.0447 0.437963 13.9212C0.485999 13.8695 0.544696 13.8273 0.596939 13.7791C0.776419 13.6136 0.955188 13.4474 1.14339 13.2759C1.17055 13.2536 1.199 13.2327 1.22466 13.2089C1.37658 13.068 1.52749 12.9261 1.67944 12.7853C1.80723 12.6668 1.93597 12.5494 2.07401 12.4273C2.27311 12.2524 2.47221 12.0775 2.68109 11.8985C2.71841 11.8582 2.75402 11.8163 2.79347 11.7782C2.84979 11.7237 2.91707 11.6782 2.96523 11.6179C3.07976 11.4745 3.15145 11.3117 3.1639 11.1205C3.1639 11.1205 3.16291 11.1138 3.16541 11.0996C3.16419 10.6196 3.16297 10.1395 3.16457 9.6455C3.16416 9.56447 3.16375 9.48343 3.1655 9.39489C3.16577 9.3923 3.16604 9.38972 3.17803 9.38056C3.17814 8.95929 3.17825 8.53802 3.17939 8.10243C3.17981 8.02008 3.18022 7.93773 3.19529 7.8562C3.98682 7.856 4.77835 7.85579 5.5773 7.85812C5.5799 7.8584 5.58251 7.85868 5.5919 7.87044C6.07064 7.87115 6.54938 7.87195 7.02812 7.87203C7.03882 7.87203 7.04952 7.8639 7.07256 7.85812C7.08908 7.85713 7.10559 7.85613 7.13259 7.85691C7.13964 7.85633 7.14669 7.85576 7.16732 7.85723C7.2145 7.85284 7.26168 7.84844 7.32015 7.8429C7.33703 7.83792 7.35391 7.83294 7.38191 7.82682C7.40736 7.81826 7.43416 7.81232 7.45799 7.80062C7.51784 7.77122 7.57634 7.73923 7.64662 7.70676C7.66152 7.69181 7.67433 7.67387 7.69165 7.66241C7.81524 7.58066 7.89486 7.46158 7.98809 7.3405C8.0322 7.28196 8.07715 7.224 8.1202 7.16473C8.17151 7.0941 8.22119 7.02235 8.27911 6.94844C8.28217 6.94428 8.28523 6.94012 8.29512 6.93412C8.29962 6.93173 8.30215 6.92805 8.31262 6.91748C8.35807 6.85225 8.40183 6.78582 8.44935 6.72205C8.52849 6.61586 8.61003 6.51138 8.69095 6.40546C8.69095 6.40546 8.69024 6.40567 8.69837 6.40355C8.70089 6.39891 8.70341 6.39428 8.70505 6.3899C8.70505 6.3899 8.70595 6.39009 8.71413 6.38871C8.71566 6.3841 8.71718 6.3795 8.72212 6.36501C8.74764 6.33351 8.77315 6.30201 8.79963 6.26983C8.79963 6.26983 8.79899 6.26886 8.80706 6.26775C8.80863 6.26328 8.8102 6.25881 8.8131 6.24656C8.81351 6.24396 8.81392 6.24136 8.82214 6.2365C8.82481 6.23205 8.82747 6.22761 8.8291 6.22272C8.8291 6.22272 8.82985 6.22354 8.83789 6.22179C8.84036 6.21727 8.84283 6.21276 8.84522 6.20756C8.84522 6.20756 8.84567 6.20811 8.85359 6.20699C8.8551 6.20257 8.85662 6.19816 8.85959 6.18602C8.86 6.18343 8.86041 6.18084 8.8682 6.17622C8.87301 6.17354 8.87571 6.16952 8.88627 6.1598C8.90478 6.13682 8.9241 6.11441 8.94167 6.09076C9.01333 5.99431 9.08444 5.89748 9.15689 5.80047C9.15689 5.80047 9.1569 5.79932 9.16652 5.79621C9.17341 5.78227 9.1803 5.76832 9.19704 5.75026C9.30532 5.60938 9.41243 5.46764 9.52223 5.3279C9.6165 5.20792 9.66047 5.07871 9.63796 4.9244C9.60785 4.71795 9.41277 4.53472 9.24121 4.51123C9.18171 4.50309 9.12276 4.49108 9.06367 4.47914C9.06367 4.47914 9.06195 4.47894 9.05454 4.46814C8.51922 4.46884 7.9839 4.46954 7.43418 4.46766C6.92435 4.46767 6.41452 4.46764 5.90469 4.46789C5.88446 4.4679 5.86422 4.47057 5.84399 4.472C5.84543 4.47902 5.84687 4.48604 5.85811 4.49849C5.97983 4.57447 6.10064 4.65188 6.22357 4.72595C6.31878 4.78331 6.41663 4.83649 6.51442 4.89273C6.51442 4.89273 6.51571 4.89171 6.51663 4.8992C6.51914 4.90407 6.52317 4.90675 6.53573 4.91559C6.63652 4.97524 6.7394 5.03182 6.83749 5.09542C6.93342 5.15761 6.92807 5.25032 6.83143 5.31587C6.71504 5.3948 6.59951 5.47494 6.47257 5.55495C6.43872 5.57929 6.40581 5.60502 6.37083 5.62769C6.29606 5.67615 6.22021 5.72303 6.1345 5.77261C6.02903 5.84237 5.92356 5.91214 5.81049 5.9825C5.80568 5.98516 5.80292 5.98915 5.80117 5.99302C5.80117 5.99302 5.79954 5.99385 5.7899 5.99784C5.65464 6.08859 5.51938 6.17935 5.37394 6.27231C5.2735 6.34153 5.17307 6.41074 5.06207 6.48144C5.01382 6.51412 4.96544 6.54665 4.91732 6.57951C4.73058 6.70706 4.54392 6.83471 4.348 6.96726C4.22723 7.0472 4.10645 7.12715 3.97841 7.20739C3.97349 7.2099 3.97126 7.21386 3.96912 7.21907C3.96912 7.21907 3.96832 7.22149 3.95906 7.22563C3.84965 7.30019 3.74024 7.37476 3.62261 7.44948C3.62005 7.45387 3.6175 7.45827 3.61393 7.46276C3.61393 7.46276 3.61401 7.46375 3.60655 7.46578C3.60184 7.46871 3.59923 7.47289 3.59873 7.47764C3.59873 7.47764 3.59805 7.47776 3.58707 7.47847C3.49101 7.54387 3.39495 7.60927 3.29059 7.67997C3.2549 7.70386 3.2192 7.72775 3.18129 7.73753C3.18006 7.42409 3.17883 7.11065 3.17968 6.78322C3.17906 6.41268 3.17844 6.04214 3.18031 5.65897C3.17955 5.39178 3.17878 5.12459 3.18112 4.84384C3.18026 4.55642 3.17941 4.269 3.18054 3.97526C3.18054 3.97526 3.18011 3.96866 3.19256 3.96262C3.19373 3.87455 3.19544 3.78648 3.19598 3.6984C3.19755 3.43912 3.19865 3.17983 3.21054 2.92427C3.3085 2.96902 3.40645 3.01376 3.51475 3.06189C3.7037 3.17106 3.89264 3.28023 4.09269 3.39188C4.18515 3.44945 4.28175 3.50166 4.369 3.56597C4.47427 3.64355 4.58607 3.6817 4.73148 3.66279C4.79924 3.66213 4.86701 3.66147 4.94458 3.66263C4.95117 3.66193 4.95775 3.66123 4.97835 3.66226C5.02064 3.66158 5.06294 3.6609 5.11957 3.66221C5.20254 3.663 5.2855 3.66379 5.374 3.67341C5.39302 3.67058 5.41204 3.66774 5.44528 3.66375C5.50261 3.66271 5.55994 3.66167 5.62967 3.6626C5.64634 3.66387 5.66302 3.66514 5.68649 3.67753C5.77667 3.67814 5.86689 3.68046 5.95703 3.67881C6.02468 3.67756 6.09224 3.6712 6.17029 3.66466C6.17736 3.66543 6.18443 3.66621 6.19883 3.67768C6.72039 3.67821 7.24195 3.67883 7.76351 3.67879C7.77719 3.67879 7.79086 3.67159 7.8148 3.66431C7.82195 3.66329 7.82909 3.66227 7.84368 3.66314C7.84368 3.66314 7.85121 3.66165 7.86562 3.6639C7.94516 3.66417 8.02534 3.6708 8.1041 3.66327C8.23349 3.6509 8.35574 3.61389 8.46477 3.52735C8.46477 3.52735 8.47198 3.52578 8.47994 3.52771C8.48293 3.5236 8.48591 3.51949 8.49836 3.50972C8.50315 3.50133 8.50635 3.49141 8.51299 3.48479C8.58881 3.40914 8.67302 3.34004 8.73972 3.25745C8.87648 3.08812 9.00476 2.91223 9.1349 2.73789C9.21595 2.62931 9.29402 2.51861 9.37221 2.40757C9.37221 2.40757 9.37341 2.4089 9.38094 2.40673C9.38352 2.40247 9.3861 2.3982 9.38957 2.39405C9.38957 2.39405 9.38978 2.39319 9.39721 2.39158C9.40208 2.38865 9.40434 2.3844 9.40595 2.37944Z" fill="white"/>
</svg>
